PathFileType	4	(X/Y/Z)	34_1_24_p0_0-910.trc
DataRate	CameraRate	NumFrames	NumMarkers	Units	OrigDataRate	OrigDataStartFrame	OrigNumFrames
52.0	52.0	5	27	m	52.0	797	911
Frame#	Time	RHip			RKnee			RAnkle			RBigToe			RSmallToe			RHeel			LHip			LKnee			LAnkle			LBigToe			LSmallToe			LHeel			Neck			Head			Nose			RShoulder			RElbow			RWrist			RThumb			RIndex			RPinky			LShoulder			LElbow			LWrist			LThumb			LIndex			LPinky			
		X1	Y1	Z1	X2	Y2	Z2	X3	Y3	Z3	X4	Y4	Z4	X5	Y5	Z5	X6	Y6	Z6	X7	Y7	Z7	X8	Y8	Z8	X9	Y9	Z9	X10	Y10	Z10	X11	Y11	Z11	X12	Y12	Z12	X13	Y13	Z13	X14	Y14	Z14	X15	Y15	Z15	X16	Y16	Z16	X17	Y17	Z17	X18	Y18	Z18	X19	Y19	Z19	X20	Y20	Z20	X21	Y21	Z21	X22	Y22	Z22	X23	Y23	Z23	X24	Y24	Z24	X25	Y25	Z25	X26	Y26	Z26	X27	Y27	Z27	
797	15.326923076923077	0.35933556629716285	0.4561768477553101	1.0258341480079278	0.36524699275979067	0.586068532466522	1.3901514394460992	0.3737482928932101	0.6895711722756951	1.7287280506937497	0.3464059041951796	0.5534972100643684	1.7758326798322577	0.41865930351754294	0.5698084432068378	1.7783591902518778	0.3505880483704989	0.8313683012807341	1.8123912532733428	0.16997045765911514	0.48328644965646395	1.0294760843245077	0.17501662473289936	0.6414062505996838	1.421278011402883	0.18302539945895763	0.7513400137317198	1.7683858819618339	0.18851606646363053	0.5415879153520513	1.7586886581743673	0.1393096491312646	0.598931391434269	1.767930521957968	0.19501364706144875	0.7839353081727359	1.7982488890391226	0.27199522860106307	0.41962597701419085	0.5429758785124297	0.2791599729462378	0.32506032899134174	0.3267522425651756	0.2554344300535029	0.25520622179836056	0.45217843765495336	0.4117824968493778	0.4008774614277264	0.6218094847362482	0.4528029346086187	0.42743987125095667	0.8360525215841581	0.32443556573278853	0.22993610768341385	0.8687915127665139	0.26221412972321945	0.15087999472043293	0.849727484678499	0.24297652234731779	0.17483712853772748	0.8631248975767261	0.2535160612233974	0.20041411271421525	0.9290174720603466	0.11915420905637229	0.41965919046852873	0.6238293501256703	0.08732311360485451	0.4057503877249266	0.825939790898141	0.20406755921213915	0.22443323612134206	0.8622660235647515	0.2721305294191138	0.15210031573202695	0.8493779319378753	0.2767836360595206	0.14435959720521657	0.8625821943267219	0.2679145221307104	0.1726992029494159	0.9132762792365902
798	15.346153846153847	0.3636324481190521	0.4422788414317918	1.0238195876022171	0.3616118116300995	0.5724830171634744	1.3869054027099454	0.3738181927059213	0.6892824744685662	1.7286287437197196	0.34638786997002446	0.5531869265743787	1.7758010982832069	0.41867336073939415	0.5693901013800007	1.778244544806544	0.3554650951928844	0.8123163152480629	1.8054320220273323	0.16992537171847225	0.4829470696608276	1.029442495949581	0.175027005377943	0.641385334470177	1.4212361515391032	0.18299591134240983	0.7513048537449439	1.7683245374419305	0.18586956650576303	0.5280968783089387	1.7537901512763456	0.13927886138874043	0.598743498288974	1.76783055046887	0.19495998778315507	0.7837192686468468	1.7981129259241722	0.2720016085400288	0.4196546249933633	0.5429720615338592	0.27913796508943695	0.32512301682297595	0.3267297601824624	0.2514318008003489	0.2665377405113903	0.45165334148690633	0.4117711808252626	0.40093509888624573	0.6218234654630292	0.4528025168703502	0.42763507209681734	0.8360370143434188	0.3244607237070586	0.23012414695158262	0.8688359261118332	0.26221646501732765	0.15076607825209376	0.850009745378159	0.2467614147824287	0.164974625085442	0.8621025468292517	0.25352824912362304	0.20036982359272268	0.9290631472110834	0.11916111676759385	0.41962486510435776	0.6237863281887667	0.08734056874439915	0.4056969502853603	0.825976872723476	0.20406407794932044	0.22451871478591814	0.8622575392556109	0.2720006942381901	0.1521249577779628	0.8492997657087541	0.2766783980746463	0.14438738112146565	0.8625825309284804	0.26736321033992705	0.17104671455280349	0.9100671633417119
799	15.365384615384615	0.3636635338418089	0.44226692418913527	1.0238847161970626	0.3616238363285021	0.5724976266267922	1.3870072556889275	0.37376946325251525	0.6894327610650921	1.7287533920461546	0.3464596401054865	0.5533667157459785	1.775831982721409	0.41871257942721557	0.5697686642041101	1.778359594798037	0.3554270677486932	0.8126072720101359	1.805531372508025	0.17494488410512932	0.4685479695298079	1.0271437333643987	0.17505010832198672	0.6412420351679081	1.421223737079199	0.18301928006983406	0.7513285561582057	1.7683701257465225	0.1859079059934041	0.528000181893489	1.753762753600133	0.13935295346888363	0.5985367672296181	1.7678007745219553	0.19504368045951323	0.7839160940987704	1.7982578537993568	0.2720025116772269	0.41963294450479827	0.5429227076806212	0.2791044143392192	0.32503123339146955	0.32672616702998164	0.25142858203116886	0.2665050829873111	0.45165636479844234	0.41179771308979907	0.40085179811620125	0.6218328629433291	0.4528514902639069	0.42743737254545355	0.8359731256109395	0.3272801500005139	0.24066230324912352	0.8696861630800884	0.26215138193679477	0.1507489609350184	0.850101166500801	0.24287647811291443	0.1749611133525465	0.8635255378812113	0.25356249216870463	0.20022974188409598	0.9290290869794109	0.11916849621676243	0.4196243329571115	0.623823114040521	0.08729102037527442	0.4059973138819765	0.8256090057008235	0.20827827840496294	0.2279694919265296	0.8624550113026099	0.27148262388572075	0.15291904930636405	0.8529555816547051	0.27300098327845207	0.15550921533475662	0.8637550519065682	0.26790283093646683	0.1730012072206125	0.9135340803906347
800	15.384615384615385	0.3592681175853652	0.4562156036787591	1.0333100155164727	0.36527016787392497	0.5860341742802625	1.3902375614815412	0.3736924097499485	0.6896611763853344	1.7289365444668603	0.3432198344832375	0.5406582428869131	1.7711933330707934	0.4186106222344544	0.569708622410723	1.7783681636132842	0.35060065069618274	0.8316014362816626	1.812518315894633	0.17042403506336506	0.48248315854767626	1.0335929878128165	0.17496441042286934	0.6416784611709976	1.4213492926603621	0.18297411504012248	0.7513400370300005	1.7683893895277136	0.18587832685107	0.5278883735988041	1.753798477893178	0.1393838995656841	0.598427831744431	1.767839523818241	0.19494314586388434	0.7838836175000534	1.7982202213158376	0.272010591150487	0.4196694521940592	0.5429458320047869	0.27904969435375176	0.3250875009598776	0.3267259587402288	0.25144612769083685	0.26654130146532434	0.4516620636714134	0.4118111673967162	0.400893693927161	0.6218009628330244	0.4528659216786067	0.42742078270477624	0.8359979162243061	0.32861357716090284	0.23085527115235913	0.868758938383083	0.2620965153133532	0.1507777750190273	0.849988815030209	0.24289618365151452	0.17495014034195017	0.8632510572743054	0.25398286867310316	0.19864664963857295	0.9325869261707052	0.11918317923639177	0.4196340770323773	0.6239259701073164	0.08737251909416359	0.4060327827493243	0.8256808854701089	0.20832620871498478	0.2278938297612112	0.8624606622739196	0.2720177591844481	0.15209218664237098	0.849176815555451	0.2730512021855512	0.15545245720901024	0.8637120293243394	0.2675064150564789	0.1709047652954797	0.9097568496914018
801	15.403846153846153	0.35887151950008733	0.45720657029708645	1.029655055418691	0.36528966176280203	0.5862884856421933	1.3902088561412473	0.3737698516295997	0.6896762102978637	1.7287780202573872	0.342958341593248	0.540077839215005	1.7709649214144105	0.4185047336416622	0.5691157658756336	1.778121242496988	0.35084760101064705	0.8322144445029067	1.8122916295838076	0.16975989896105953	0.48347232181734306	1.0297918653218878	0.1758630920110569	0.6401387172789044	1.4173152266705609	0.18359198722785772	0.751225265202452	1.7596344655784413	0.18581014001677792	0.5281459360183213	1.7537418738164732	0.13409290709685764	0.6136530222429813	1.7734181121279657	0.1949625907669776	0.7836693809272737	1.798034907457525	0.2675311180351372	0.43393595706480315	0.5461189315304051	0.27596549895298816	0.31387769592183407	0.32798090810832425	0.25135178573175926	0.266595878682064	0.4517281476705224	0.41185096389472914	0.4008217089320939	0.6218028665252234	0.4561179990500327	0.41481361581721937	0.8311897602388787	0.32732326313779264	0.24046413822539034	0.8696112117078566	0.2620607159002571	0.1510997845444445	0.8503412774773544	0.24526292542026268	0.18665347863952084	0.8643824492101837	0.25834994755771745	0.1870447943921764	0.9288035463223905	0.11907565849586416	0.41968168006985634	0.6242253623229027	0.08728304832487187	0.40589138100281974	0.8258835593169006	0.2084767295957133	0.22826143617671918	0.8622452870720612	0.2751210688404938	0.16186143839416897	0.8498903414814054	0.276413502381641	0.14291285803196807	0.8593307975256231	0.2681952715341394	0.17288713994601457	0.9133545090446047
